/* XPM */
static char * exit_xpm[] = {
"32 32 9 1",
" 	c #25131A",
".	c #362030",
"+	c #90919E",
"@	c #ADC1CF",
"#	c #3D253B",
"$	c #BF704D",
"%	c #895A45",
"&	c #BBD3E1",
"*	c #523B40",
"                                ",
"                                ",
"  ..                    ........",
"  ..                    ........",
"      ++++@@@@@@@@++++    ####..",
"      ++++@@@@@@@@++++    ####..",
"    @@$$@@%%%%%%%%&&$$@@    ##..",
"    @@$$@@%%%%%%%%&&$$@@    ##..",
"  ++%%$$$$$$$$$$$$$$$$%%++  ....",
"  ++%%$$$$$$$$$$$$$$$$%%++  ....",
"  @@@@@@@@@@@@@@@@@@@@@@@@  ####",
"  @@@@@@@@@@@@@@@@@@@@@@@@  ####",
"        ++++++++++++        ####",
"        ++++++++++++        ####",
"  @@%%******++++******%%@@  ####",
"  @@%%******++++******%%@@  ####",
"  ++++%%**++++++++**%%++++  ####",
"  ++++%%**++++++++**%%++++  ####",
"  ++++%%************%%++++  ####",
"  ++++%%************%%++++  ####",
"  @@++******%%%%******++@@  ####",
"  @@++******%%%%******++@@  ####",
"  @@@@++++++++++++++++@@@@  ####",
"  @@@@++++++++++++++++@@@@  ####",
"                            ####",
"                            ####",
"  ..############################",
"  ..############################",
"  ..############################",
"  ..############################",
"  ........##..##################",
"  ........##..##################"};
