/* XPM */
static char * ground_xpm[] = {
"32 32 2 1",
" 	c #3D253B",
".	c #362030",
"               .               .",
"               .               .",
"               .               .",
"               .               .",
"        . .. ...               .",
"                               .",
"                               .",
"                               .",
"                                ",
"                               .",
"                                ",
"                                ",
"                       .        ",
"                       .        ",
"                       .        ",
"..... .         ........... .   ",
"               .                ",
"               .                ",
"               .                ",
"               .       .        ",
"               .       .        ",
"                       .        ",
"               .       .........",
"                       .       .",
"                       .       .",
"                       .        ",
"                                ",
"                                ",
"               .                ",
"               .                ",
"               .                ",
"       .........                "};
