/* XPM */
static char * collect_xpm[] = {
"32 32 5 1",
" 	c #25131A",
".	c #362030",
"+	c #3D253B",
"@	c #ADC1CF",
"#	c #90919E",
"                                ",
"                                ",
"................................",
"................................",
"..++++++++++++++++++++++++++++++",
"..++++++++++++++++++++++++++++++",
"..++++++++++++++++++++++++++++++",
"..++++++++++++++++++++++++++++++",
"..++++++++++++++++++    ++++++++",
"..++++++++++++++++++    ++++++++",
"..++++++++++++++++  @@##  ++++++",
"..++++++++++++++++  @@##  ++++++",
"..++++            ##    ##  ++++",
"..++++            ##    ##  ++++",
"..++++  ############++  ##  ++++",
"..++++  ############++  ##  ++++",
"++++++  @@@@@@    @@++  ##  ++++",
"++++++  @@@@@@    @@++  ##  ++++",
"..++++  @@  @@++  @@++  @@  ++++",
"..++++  @@  @@++  @@++  @@  ++++",
"++++++  @@++  ++++  @@@@  ++++++",
"++++++  @@++  ++++  @@@@  ++++++",
"++++++++  ++++++++++    ++++++++",
"++++++++  ++++++++++    ++++++++",
"++++++++++++++++..++++++++++++++",
"++++++++++++++++..++++++++++++++",
"++++++++++++++++..++++++++++++++",
"++++++++++++++++..++++++++++++++",
"++++++++++++++++..++++++++++++++",
"++++++++++++++++..++++++++++++++",
"++++++..++......................",
"++++++..++......................"};
