/* XPM */
static char * collect_xpm[] = {
"16 16 4 1",
" 	c #242323",
".	c #111010",
"+	c #191818",
"@	c #323030",
" .+ @. . .+ @. .",
".+ +. .+@+ +. .+",
"+@. +.+ +.. +.+ ",
"+.+. +.+ .+. +.+",
".+@++. ..+@++. .",
" .+ .@+ @.+ .@+ ",
"+ .+ .+++ .+ .++",
".+ .. . .+ .. . ",
" .+ @. . .+ @. .",
".+ +. .+.+@+. .+",
"@.. +.+ +.. +.+ ",
"+.+. +.+@.+. +.+",
".+@++. ..+@++. .",
" .+ .@+  .+ .@+ ",
"+ .+ .+++ .+ .++",
".+ .. . .+ .. . "};
