/* XPM */
static char *e27ddaf67e8d450c8e19c8e4f847e747Mr7eovZHIfmBvmRf[] = {
/* columns rows colors chars-per-pixel */
"16 16 19 1 ",
"  c #375E07",
". c #2B4D1D",
"X c #315321",
"o c #3E5D29",
"O c #327B3C",
"+ c #466A10",
"@ c #357A46",
"# c #439B25",
"$ c #628636",
"% c #4EAA33",
"& c #51AF37",
"* c #6B944D",
"= c #6E994D",
"- c #7AAF50",
"; c #63C74D",
": c #82BB52",
"> c #87CF52",
", c #8ED053",
"< c #A3D555",
/* pixels */
".XXoX+ XoXXoX+ X",
"#OO-=OOO,,-:==O=",
"@=OOO-,,O,,-O:--",
"<==OO:-,,==O==-:",
"<=-O=::-:O=O=-,,",
"@--O==:--OOO-,,O",
"&OO=--=OO---==OO",
"&O==-:=O:--:OO--",
";=:-,,O=:-,,=O:-",
"<=-,,OO=-,,OOO,,",
"%=OO$,,-OOO-*=O,",
"&=-O,,-:O=-*=:OO",
"@--=:-=:OO-:,:OO",
"&O==-*=OO=:,:O--",
"#-OOOOO--:OOOO:-",
">:O:==O:-::==O,,"
};
