/* XPM */
static char * wall_xpm[] = {
"32 32 5 1",
" 	c #4C2F49",
".	c #78514F",
"+	c #6E4A48",
"@	c #3D253B",
"#	c #25131A",
"                                ",
"  ....    ....    ....    ....  ",
" .+++..  ++++..  .+++..  ++++.. ",
" .++++.  +++++.  .++++.  +++++. ",
" ++++++  ++++++  ++++++  ++++++ ",
" +++++.  ++++++  +++++.  ++++++ ",
"                                ",
"@@@@@@@@@@@@@@@@@@@@@@@@@@@@@@@@",
"@@############@@@@############@@",
"@#####@########@@#####@########@",
"@#####@#########@#####@#########",
"#@@@@@##@@@@@@#@#@@@@@##@@@@@@#@",
"@###############@###############",
"################################",
"################################",
"################################",
"                                ",
" ......  ......  .......  ..... ",
" .++++.  .++++.  .+++++.  ++++. ",
" ++++++  +++++.  .++++++  ++++. ",
" +++++.  ++++++  ++++++.  ++++. ",
" ++++++  ++++++  +++++++  ++++. ",
"                          ++++. ",
"@@@@@@@@@@@@@@@@@@@@@@@@@ ++++. ",
"#######@#######@########@ ++++. ",
"@######@########@######## ++++. ",
"#######@#######@######### ++++. ",
"@###############@@@@@@@## ++++. ",
"#######@#######@######### ++++. ",
"#######@#######@######### ++++. ",
"######################### +++++ ",
"#########################       "};
