/* XPM */
static char *_51320fb61724a359b7ab4de4b25ed2c2eVIUgwcZ3wVWemw[] = {
/* columns rows colors chars-per-pixel */
"80 80 5 1 ",
"  c #694B2F",
". c #835E3B",
"X c #A4764A",
"o c #38A213",
"O c #46CB18",
/* pixels */
"OOOOOOOOOOOOOOOOOOOOOOOOOOOOOOOOOOOOOOOOOOOOOOOOoOOOOOOOOOOOOOOooOOOOOOOOOOOOOOO",
"OOOOOOOOOOOOOOOOOOOOOOOOOOOOOOOOOOOOOOOOOOOOOOOOooOOOOOOOOOOOOooooOOOOOOOOOOOOOO",
"oooooooooooooooooooooooooooooooooooooooooooooooooooooooooooooooooooooooooooooooo",
"oXoXoXoXoXoXoXoXoXoXoXoXoXoXoXoXoXoXoXoXoXoXoXoXo.oXoXoXoXoXoXo o.oXoXoXoXoXoXoX",
"XoXoXoXoXoXoXoXoXoXoXoXoXoXoXoXoXoXoXoXoXoXoXoXo oXoXoXoXoXoXo.o oXoXoXoXoXoXoXo",
"oXXXoXXXoXXXoXXXoXXXoXXXoXXXoXXXoXXXoXXXoXXXoXXXo.XXoXXXoXXXoX. o.XXoXXXoXXXoXXX",
"XXoXXXoXXXoXXXoXXXoXXXoXXXoXXXoXXXoXXXoXXXoXXXoX .oXXXoXXXoXXXo  .oXXXoXXXoXXXoX",
"XXXXXXXXXXXXXXXXXXXXXXXXXXXXXXXXXXXXXXXXXXXXXXXX .XXXXXXXXXXXX.  .XXXXXXXXXXXXXX",
"XXXXXXXXXXXXXXXXXXXXXXXXXXXXXXXXXXXXXXXXXXXXXXXX .XXXXXXXXXXXX.  .XXXXXXXXXXXXXX",
"XXXXXXXXXXXXXXXXXXXXXXXXXXXXXXXXXXXXXXXXXXXXXXXX .XXXXXXXXXXXX.  .XXXXXXXXXXXXXX",
"XXXXXXXXXXXXXXXXXXXXXXXXXXXXXXXXXXXXXXXXXXXXXXXX .XXXXXXXXXXXX.  .XXXXXXXXXXXXXX",
"XXXXXXXXXXXXXXXXXXXXXXXXXXXXXXXXXXXXXXXXXXXXXXXX .XXXXXXXXXXXX.  .XXXXXXXXXXXXXX",
"XXXXXXXXXXXXXXXXXXXXXXXXXXXXXXXXXXXXXXXXXXXXXXXX .XXXXXXXXXXXX.  .XXXXXXXXXXXXXX",
"XXXXXXXXXXXXXXXXXXXXXXXXXXXXXXXXXXXXXXXXXXXXXXXX .XXXXXXXXXXXX.  .XXXXXXXXXXXXXX",
"XXXXXXXXXXXXXXXX..XXXXXXXXXXXXXX..XXXXXXXXXXXX.. ..............  ...............",
"XXXXXXXXXXXXXXXX .XXXXXXXXXXXXXX .XXXXXXXXXXXX.                                 ",
"OOOOOOOOOOOOOOOooOOOOOOOOOOOOOOoOOOOOOOOOOOOOOOOOOOOOOOOOOOOOOOoOOOOOOOOOOOOOOOo",
"OOOOOOOOOOOOOOooooOOOOOOOOOOOOooOOOOOOOOOOOOOOOOOOOOOOOOOOOOOOooOOOOOOOOOOOOOOoo",
"oooooooooooooooooooooooooooooooooooooooooooooooooooooooooooooooooooooooooooooooo",
"oXoXoXoXoXoXoXo o.oXoXoXoXoXoXo oXoXoXoXoXoXoXoXoXoXoXoXoXoXoXo oXoXoXoXoXoXoXo ",
"XoXoXoXoXoXoXo.o oXoXoXoXoXoXo.oXoXoXoXoXoXoXoXoXoXoXoXoXoXoXo.oXoXoXoXoXoXoXo.o",
"oXXXoXXXoXXXoX. o.XXoXXXoXXXoX. oXXXoXXXoXXXoXXXoXXXoXXXoXXXoX. oXXXoXXXoXXXoX. ",
"XXoXXXoXXXoXXXo  .oXXXoXXXoXXXo XXoXXXoXXXoXXXoXXXoXXXoXXXoXXXo XXoXXXoXXXoXXXo ",
"XXXXXXXXXXXXXX.  .XXXXXXXXXXXX. XXXXXXXXXXXXXXXXXXXXXXXXXXXXXX. XXXXXXXXXXXXXX. ",
"XXXXXXXXXXXXXX.  .XXXXXXXXXXXX. XXXXXXXXXXXXXXXXXXXXXXXXXXXXXX. XXXXXXXXXXXXXX. ",
"XXXXXXXXXXXXXX.  .XXXXXXXXXXXX. XXXXXXXXXXXXXXXXXXXXXXXXXXXXXX. XXXXXXXXXXXXXX. ",
"XXXXXXXXXXXXXX.  .XXXXXXXXXXXX. XXXXXXXXXXXXXXXXXXXXXXXXXXXXXX. XXXXXXXXXXXXXX. ",
"XXXXXXXXXXXXXX.  .XXXXXXXXXXXX. XXXXXXXXXXXXXXXXXXXXXXXXXXXXXX. XXXXXXXXXXXXXX. ",
"XXXXXXXXXXXXXX.  .XXXXXXXXXXXX. XXXXXXXXXXXXXXXXXXXXXXXXXXXXXX. XXXXXXXXXXXXXX. ",
"XXXXXXXXXXXXXX.  .XXXXXXXXXXXX. XXXXXXXXXXXXXXXXXXXXXXXXXXXXXX. XXXXXXXXXXXXXX. ",
"...............  .XXXXXXXXXXXX. ................XXXXXXXXXXXXXX. ..XXXXXXXXXXXX. ",
"                 .XXXXXXXXXXXX.                 XXXXXXXXXXXXXX.  .XXXXXXXXXXXX. ",
"oOOOOOOOOOOOOOOOoOOOOOOOOOOOOOOOXXXXXXXXXXXXXXXX .XXXXXXXXXXXX.  .XXXXXXXXXXXXXX",
"ooOOOOOOOOOOOOOOooOOOOOOOOOOOOOOXXXXXXXXXXXXXXXX..XXXXXXXXXXXX....XXXXXXXXXXXXXX",
"ooooooooooooooooooooooooooooooooXXXXXXXXXXXXXXXXXXXXXXXXXXXXXXXXXXXXXXXXXXXXXXXX",
"o.oXoXoXoXoXoXoXo.oXoXoXoXoXoXoXXXXXXXXXXXXXXXXXXXXXXXXXXXXXXXXXXXXXXXXXXXXXXXXX",
" oXoXoXoXoXoXoXo oXoXoXoXoXoXoXoXXXXXXXXXXXXXXXXXXXXXXXXXXXXXXXXXXXXXXXXXXXXXXXX",
"o.XXoXXXoXXXoXXXo.XXoXXXoXXXoXXXXXXXXXXXXXXXXXXXXXXXXXXXXXXXXXXXXXXXXXXXXXXXXXXX",
" .oXXXoXXXoXXXoX .oXXXoXXXoXXXoXXXXXXXXXXXXXXXXXXXXXXXXXXXXXXXXXXXXXXXXXXXXXXXXX",
" .XXXXXXXXXXXXXX .XXXXXXXXXXXXXXXXXXXXXXXXXXXXXXXXXXXXXXXXXXXXXXXXXXXXXXXXXXXXXX",
" .XXXXXXXXXXXXXX .XXXXXXXXXXXXXXXXXXXXXXXXXXXXXXXXXXXXXXXXXXXXXXXXXXXXXXXXXXXXXX",
" .XXXXXXXXXXXXXX .XXXXXXXXXXXXXXXXXXXXXXXXXXXXXXXXXXXXXXXXXXXXXXXXXXXXXXXXXXXXXX",
" .XXXXXXXXXXXXXX .XXXXXXXXXXXXXXXXXXXXXXXXXXXXXXXXXXXXXXXXXXXXXXXXXXXXXXXXXXXXXX",
" .XXXXXXXXXXXXXX .XXXXXXXXXXXXXXXXXXXXXXXXXXXXXXXXXXXXXXXXXXXXXXXXXXXXXXXXXXXXXX",
" .XXXXXXXXXXXXXX .XXXXXXXXXXXXXXXXXXXXXXXXXXXXXXXXXXXXXXXXXXXXXXXXXXXXXXXXXXXXXX",
" .XXXXXXXXXXXXXX .XXXXXXXXXXXXXXXXXXXXXXXXXXXXXXXXXXXXXXXXXXXXXXXXXXXXXXXXXXXXXX",
" .XXXXXXXXXXXXXX .XXXXXXXXXXXX..XXXXXXXXXXXXXXXX..XXXXXXXXXXXX....XXXXXXXXXXXX..",
" .XXXXXXXXXXXXXX .XXXXXXXXXXXX. XXXXXXXXXXXXXXXX .XXXXXXXXXXXX.  .XXXXXXXXXXXX. ",
"XXXXXXXXXXXXXXXXXXXXXXXXXXXXXXXX .XXXXXXXXXXXX.                  .XXXXXXXXXXXXXX",
"XXXXXXXXXXXXXXXXXXXXXXXXXXXXXXXX .XXXXXXXXXXXX.  ..............  .XXXXXXXXXXXXXX",
"XXXXXXXXXXXXXXXXXXXXXXXXXXXXXXXX .XXXXXXXXXXXX.  .XXXXXXXXXXXX.  .XXXXXXXXXXXXXX",
"XXXXXXXXXXXXXXXXXXXXXXXXXXXXXXXX .XXXXXXXXXXXX.  .XXXXXXXXXXXX.  .XXXXXXXXXXXXXX",
"XXXXXXXXXXXXXXXXXXXXXXXXXXXXXXXX .XXXXXXXXXXXX.  .XXXXXXXXXXXX.  .XXXXXXXXXXXXXX",
"XXXXXXXXXXXXXXXXXXXXXXXXXXXXXXXX .XXXXXXXXXXXX.  .XXXXXXXXXXXX.  .XXXXXXXXXXXXXX",
"XXXXXXXXXXXXXXXXXXXXXXXXXXXXXXXX .XXXXXXXXXXXX.  .XXXXXXXXXXXX.  .XXXXXXXXXXXXXX",
"XXXXXXXXXXXXXXXXXXXXXXXXXXXXXXXX .XXXXXXXXXXXX.  .XXXXXXXXXXXX.  .XXXXXXXXXXXXXX",
"XXXXXXXXXXXXXXXXXXXXXXXXXXXXXXXX .XXXXXXXXXXXX.  .XXXXXXXXXXXX.  .XXXXXXXXXXXXXX",
"XXXXXXXXXXXXXXXXXXXXXXXXXXXXXXXX .XXXXXXXXXXXX.  .XXXXXXXXXXXX.  .XXXXXXXXXXXXXX",
"XXXXXXXXXXXXXXXXXXXXXXXXXXXXXXXX .XXXXXXXXXXXX.  .XXXXXXXXXXXX.  .XXXXXXXXXXXXXX",
"XXXXXXXXXXXXXXXXXXXXXXXXXXXXXXXX .XXXXXXXXXXXX.  .XXXXXXXXXXXX.  .XXXXXXXXXXXXXX",
"XXXXXXXXXXXXXXXXXXXXXXXXXXXXXXXX .XXXXXXXXXXXX.  .XXXXXXXXXXXX.  .XXXXXXXXXXXXXX",
"XXXXXXXXXXXXXXXXXXXXXXXXXXXXXXXX .XXXXXXXXXXXX.  .XXXXXXXXXXXX.  .XXXXXXXXXXXXXX",
"..XXXXXXXXXXXX..XXXXXXXXXXXXXX.. ..............  ..............  ...............",
" .XXXXXXXXXXXX. XXXXXXXXXXXXXX.                                                 ",
" .XXXXXXXXXXXX.  .XXXXXXXXXXXX. XXXXXXXXXXXXXXXXXXXXXXXXXXXXXX.  .XXXXXXXXXXXX. ",
" .XXXXXXXXXXXX.. .XXXXXXXXXXXX. XXXXXXXXXXXXXXXXXXXXXXXXXXXXXX....XXXXXXXXXXXX..",
" .XXXXXXXXXXXXXX .XXXXXXXXXXXX. XXXXXXXXXXXXXXXXXXXXXXXXXXXXXXXXXXXXXXXXXXXXXXXX",
" .XXXXXXXXXXXXXX .XXXXXXXXXXXX. XXXXXXXXXXXXXXXXXXXXXXXXXXXXXXXXXXXXXXXXXXXXXXXX",
" .XXXXXXXXXXXXXX .XXXXXXXXXXXX. XXXXXXXXXXXXXXXXXXXXXXXXXXXXXXXXXXXXXXXXXXXXXXXX",
" .XXXXXXXXXXXXXX .XXXXXXXXXXXX. XXXXXXXXXXXXXXXXXXXXXXXXXXXXXXXXXXXXXXXXXXXXXXXX",
" .XXXXXXXXXXXXXX .XXXXXXXXXXXX. XXXXXXXXXXXXXXXXXXXXXXXXXXXXXXXXXXXXXXXXXXXXXXXX",
" .XXXXXXXXXXXXXX .XXXXXXXXXXXX. XXXXXXXXXXXXXXXXXXXXXXXXXXXXXXXXXXXXXXXXXXXXXXXX",
" .XXXXXXXXXXXXXX .XXXXXXXXXXXX. XXXXXXXXXXXXXXXXXXXXXXXXXXXXXXXXXXXXXXXXXXXXXXXX",
" .XXXXXXXXXXXXXX .XXXXXXXXXXXX. XXXXXXXXXXXXXXXXXXXXXXXXXXXXXXXXXXXXXXXXXXXXXXXX",
" .XXXXXXXXXXXXXX .XXXXXXXXXXXX. XXXXXXXXXXXXXXXXXXXXXXXXXXXXXXXXXXXXXXXXXXXXXXXX",
" .XXXXXXXXXXXXXX .XXXXXXXXXXXX. XXXXXXXXXXXXXXXXXXXXXXXXXXXXXXXXXXXXXXXXXXXXXXXX",
" .XXXXXXXXXXXXXX .XXXXXXXXXXXX. XXXXXXXXXXXXXXXXXXXXXXXXXXXXXXXXXXXXXXXXXXXXXXXX",
" .XXXXXXXXXXXXXX .XXXXXXXXXXXX. XXXXXXXXXXXXXXXXXXXXXXXXXXXXXXXXXXXXXXXXXXXXXXXX",
" ............... .XXXXXXXXXXXX. ................................................",
"                 .XXXXXXXXXXXX.                                                 "
};
